<svg id="Capa_1" enable-background="new 0 0 512.001 512.001" viewBox="0 0 512.001 512.001"
     xmlns="http://www.w3.org/2000/svg">
    <g>
        <path d="m31 512.001h450c4.607 0 8.959-2.117 11.802-5.742 2.844-3.625 3.863-8.356 2.766-12.831l-12.973-52.893c-11.707-46.829-53.595-79.534-101.865-79.534h-64.73v-16.858c35.342-21.642 60-62.64 60-109.085v-130.057c0-41.355-33.645-75-75-75h-137.573c-23.353 0-45.307-9.094-61.819-25.606-4.291-4.291-10.743-5.575-16.348-3.253s-9.26 7.792-9.26 13.859v90c0 36.219 25.809 66.524 60 73.493v62.507c0 44.955 24.385 83.326 60 103.99v16.01h-64.73c-48.27 0-90.158 32.706-101.881 79.599l-12.957 52.828c-1.097 4.475-.078 9.205 2.766 12.831 2.843 3.624 7.195 5.742 11.802 5.742zm314.629-121h35.101c34.479 0 64.399 23.361 72.745 56.745l8.402 34.255h-144.886c15.47-19.244 26.531-48.695 28.638-91zm-89.629 91c-42.103 0-57.181-48.647-59.582-91h7.654c10.391 17.916 29.769 30 51.928 30s41.537-12.094 51.928-30.01h7.654c-2.404 42.409-17.508 91.01-59.582 91.01zm-30-121v-3.746c12.101 3.097 24.348 4.209 36.432 3.576 8.036-.421 15.922-1.69 23.568-3.75v3.92c0 16.542-13.458 30-30 30s-30-13.458-30-30zm-120-256v-59.94c17.342 9.752 36.986 14.939 57.426 14.939h137.574c19.763 0 36.579 12.812 42.61 30.562-45.229 2.965-70.522 17.398-95.052 31.415-25.22 14.411-49.042 28.024-97.558 28.024-24.813 0-45-20.187-45-45zm60 74.593c46.745-2.603 72.481-17.306 97.442-31.569 22.472-12.841 43.849-25.038 82.558-27.546 0 0-.035 117.41-.095 118.816-10.8-2.403-20.717-7.037-31.039-11.875-16.416-7.696-35.023-16.418-58.867-16.418s-42.451 8.722-58.867 16.418c-10.345 4.85-20.291 9.499-31.133 11.896v-59.722zm4.417 89.442c14.986-3.007 27.787-8.986 39.45-14.453 14.899-6.985 28.972-13.582 46.133-13.582s31.234 6.597 46.133 13.582c11.274 5.285 23.627 11.056 37.987 14.151-12.446 34.571-43.281 60.255-79.257 62.139-43.056 2.255-78.587-25.435-90.446-61.837zm-111.907 178.774c8.362-33.449 38.282-56.81 72.761-56.81h35.101c2.107 42.305 13.168 71.757 28.638 91h-144.886z"/>
    </g>
</svg>